# File created by Blade
# Date/Time:  Fri Jan 16 17:45:28 2015
# Frame Rate: 120.000 fps
#------------------------------------------------------
:FULLY-SPECIFIED
:DEGREES
3889
root -5.204357 35.204074 -9.626681 -0.495639 -4.345541 -6.526737
Spine -5.353815 -5.322456 8.208675
Head 8.900788 4.060859 -5.940123
LeftShoulder -22.655588 13.467170 -13.742171
LeftArm 13.427838 -9.929549 -79.663957
LeftForeArm 4.793316 -0.000000 12.507529
LeftHand 1.924952 -0.000000 -4.433269
LeftHandThumb1 -26.253704 0.000000 33.147579
RightShoulder -13.541837 5.059759 4.758200
RightArm -28.143270 62.005845 51.361977
RightForeArm 40.549774 -0.000000 94.059136
RightHand -3.137218 -0.000000 -57.785692
RightHandThumb1 -24.326973 -0.000000 -32.862282
LeftUpLeg 10.866694 13.883743 7.175326
LeftLeg -9.292061 -0.000000 0.000000
LeftFoot -16.054853 27.792132 -7.244413
LeftToeBase 23.139122 -0.000000 -0.000000
RightUpLeg 7.391987 -5.190182 4.386506
RightLeg -3.933339 -0.000000 0.000000
RightFoot -5.195791 -27.477441 5.059572
RightToeBase 13.478273 -0.000000 -0.000000
3890
root -5.201842 35.203482 -9.622996 -0.461660 -4.375895 -6.541768
Spine -5.382149 -5.331359 8.199544
Head 8.915109 4.086345 -5.914208
LeftShoulder -22.688243 13.457822 -13.731767
LeftArm 13.415131 -9.981047 -79.695564
LeftForeArm 4.778215 -0.000000 12.509385
LeftHand 1.922082 -0.000000 -4.428726
LeftHandThumb1 -26.253704 0.000000 33.147579
RightShoulder -13.676655 5.138932 4.678895
RightArm -29.571484 62.997367 49.778972
RightForeArm 41.196336 0.000000 93.258702
RightHand -2.913654 0.000000 -60.395473
RightHandThumb1 -24.326973 -0.000000 -32.862282
LeftUpLeg 10.862082 13.932250 7.183672
LeftLeg -9.321402 -0.000000 0.000000
LeftFoot -16.051800 27.775176 -7.235696
LeftToeBase 23.147089 -0.000000 -0.000000
RightUpLeg 7.361878 -5.150436 4.400600
RightLeg -3.930512 -0.000000 0.000000
RightFoot -5.201596 -27.478496 5.097896
RightToeBase 13.424013 -0.000000 -0.000000
3891
root -5.200693 35.202683 -9.617780 -0.433954 -4.374680 -6.547974
Spine -5.414326 -5.363111 8.171079
Head 8.931156 4.131504 -5.861775
LeftShoulder -22.681585 13.451336 -13.683873
LeftArm 13.318303 -9.958410 -79.721923
LeftForeArm 4.656077 -0.000000 12.625237
LeftHand 1.882591 0.000000 -4.341741
LeftHandThumb1 -26.253704 0.000000 33.147579
RightShoulder -13.847566 5.166792 4.635508
RightArm -30.873362 63.818502 48.269853
RightForeArm 42.216429 -0.000000 92.487428
RightHand -3.181544 -0.000000 -63.116413
RightHandThumb1 -24.326973 -0.000000 -32.862282
LeftUpLeg 10.866351 13.923598 7.184855
LeftLeg -9.365585 -0.000000 0.000000
LeftFoot -16.020810 27.769649 -7.222151
LeftToeBase 23.138188 -0.000000 -0.000000
RightUpLeg 7.350419 -5.142884 4.407440
RightLeg -3.944947 -0.000000 0.000000
RightFoot -5.202767 -27.490866 5.099172
RightToeBase 13.454374 -0.000000 -0.000000
3892
root -5.198517 35.201872 -9.613178 -0.407714 -4.371069 -6.549372
Spine -5.441557 -5.405961 8.134491
Head 8.933722 4.182624 -5.782847
LeftShoulder -22.708542 13.441698 -13.655518
LeftArm 13.320015 -10.113268 -79.782652
LeftForeArm 4.708222 -0.000000 12.584749
LeftHand 1.894929 -0.000000 -4.503706
LeftHandThumb1 -26.253704 0.000000 33.147579
RightShoulder -14.012292 5.192454 4.568906
RightArm -32.293692 64.617806 46.663448
RightForeArm 43.358829 -0.000000 91.603971
RightHand -3.409852 -0.000000 -64.430278
RightHandThumb1 -24.326973 -0.000000 -32.862282
LeftUpLeg 10.874754 13.911997 7.177332
LeftLeg -9.421834 -0.000000 0.000000
LeftFoot -16.019261 27.774642 -7.252375
LeftToeBase 23.165178 -0.000000 -0.000000
RightUpLeg 7.333251 -5.131291 4.406360
RightLeg -3.945386 -0.000000 0.000000
RightFoot -5.210117 -27.495417 5.096581
RightToeBase 13.462108 -0.000000 -0.000000
3893
root -5.190942 35.200336 -9.609457 -0.395033 -4.416048 -6.530201
Spine -5.432555 -5.406762 8.095963
Head 8.912522 4.224852 -5.761943
LeftShoulder -22.720121 13.417337 -13.627419
LeftArm 13.288604 -10.292502 -79.870058
LeftForeArm 4.780934 -0.000000 12.601844
LeftHand 1.909172 -0.000000 -4.622036
LeftHandThumb1 -26.253704 0.000000 33.147579
RightShoulder -14.242986 5.176247 4.465821
RightArm -33.477387 65.617970 45.220548
RightForeArm 44.238296 0.000000 90.618703
RightHand -3.938052 -0.000000 -65.048367
RightHandThumb1 -24.326973 -0.000000 -32.862282
LeftUpLeg 10.899541 13.983464 7.147457
LeftLeg -9.471230 -0.000000 0.000000
LeftFoot -16.011995 27.788791 -7.179850
LeftToeBase 23.335397 -0.000000 -0.000000
RightUpLeg 7.319076 -5.060468 4.376464
RightLeg -3.936654 -0.000000 0.000000
RightFoot -5.238845 -27.512831 5.109313
RightToeBase 13.464285 -0.000000 -0.000000
